# xmcd CD database file
#
# Track frame offsets:
#	150
#	16150
#	32445
#	51997
#	68095
#	88890
#	104210
#	123537
#	137670
#	156435
#	173172
#	186990
#
# Disc length: 2696 seconds
#
# Revision: 0
# Processed by: cddbd v1.4PL0 Copyright (c) Steve Scherf et al.
# Submitted via: NeoAudio 9.9.9
#
DISCID=aa0a860c
DTITLE=Kike de Heridad y Su Grupo Carnaval - Al Rojo Vivo
DYEAR=1997
DGENRE=Salsa
TTITLE0=Al Rojo Vivo
TTITLE1=Algo debemos Hacer
TTITLE2=Cuerpo a Cuerpo
TTITLE3=Luna Liberiana
TTITLE4=Cumbia Centroamericana
TTITLE5=Tico soy Yo
TTITLE6=Carnaval de Cumbias 2
TTITLE7=Calla Corazón
TTITLE8=Cama Vacía
TTITLE9=Mi Lindo San Carlos
TTITLE10=Cartaginesa
TTITLE11=Los Compadres
EXTD=YEAR: 1997
EXTT0=
EXTT1=
EXTT2=
EXTT3=
EXTT4=
EXTT5=
EXTT6=
EXTT7=
EXTT8=
EXTT9=
EXTT10=
EXTT11=
PLAYORDER=
